<svg width="13" height="10" viewBox="0 0 13 10" fill="none" xmlns="http://www.w3.org/2000/svg">
<path d="M6.40205 2.8478C6.40205 4.93725 6.44591 7.02742 6.44591 9.11776C6.44591 9.29802 6.20919 9.2755 6.05115 9.29808C5.93811 9.31423 5.82808 9.37097 5.71487 9.39312C5.54304 9.42674 5.36679 9.39903 5.19826 9.42967C4.63477 9.53212 4.03595 9.4242 3.48273 9.2859C2.67341 9.08357 1.87962 8.84486 1.13851 8.4525C1.04925 8.40525 1.09558 8.17573 1.09464 8.1016C1.09041 7.76711 1.05078 7.43584 1.05078 7.10006C1.05078 6.34333 1.19916 5.57997 1.26766 4.82651C1.31607 4.29396 1.35195 3.75581 1.42362 3.22551C1.4893 2.73944 1.68766 2.29302 1.88418 1.84383C1.89659 1.81545 1.96468 1.58724 1.99627 1.57822C2.14444 1.53588 2.37243 1.57342 2.51775 1.58553C3.25258 1.64676 4.01187 1.91559 4.62804 2.3117C4.87254 2.46888 5.13739 2.82488 5.44682 2.8478C5.64166 2.86224 5.76612 3.02325 5.96342 3.02325" stroke="black" stroke-linecap="round"/>
<path d="M6.35669 2.93543C6.24521 2.93543 6.1533 2.86384 6.04965 2.82821C5.85482 2.76124 5.65306 2.71551 5.4575 2.65032C5.15344 2.54897 4.87398 2.33889 4.56806 2.26774C4.28109 2.20101 4.04387 2.00252 3.77121 1.90709C3.46343 1.79937 3.15296 1.69311 2.84766 1.57568" stroke="black" stroke-linecap="round"/>
<path d="M8.28572 2.71582C8.28572 3.66504 8.33456 4.63183 8.23211 5.57665C8.16853 6.16297 8.06641 6.76507 8.06641 7.35554C8.06641 7.84138 8.11027 8.33269 8.11027 8.81276" stroke="#C1C1C1" stroke-linecap="round"/>
<path d="M8.41943 2.84777C8.44302 2.72979 8.60705 2.66483 8.69235 2.59921C8.88585 2.45037 9.06448 2.34229 9.27963 2.23125C9.722 2.00293 10.1891 1.83732 10.6296 1.60011C10.8641 1.47383 11.1258 1.29631 11.4021 1.31256C11.8056 1.3363 11.6255 4.52477 11.6214 4.88495C11.6129 5.63778 11.5868 6.41357 11.5313 7.16338C11.5144 7.39101 11.446 7.60527 11.446 7.83839C11.446 8.03947 11.2873 8.02827 11.1292 8.12106C10.2374 8.64451 9.14731 9.00398 8.15625 9.25174" stroke="#C1C1C1" stroke-linecap="round"/>
</svg>
