<svg width="10" height="10" viewBox="0 0 10 10" fill="none" xmlns="http://www.w3.org/2000/svg">
<path d="M4.89172 2.94117C4.92744 2.96619 4.96314 2.99124 4.99886 2.99124C5.03459 2.99124 5.07029 2.96622 5.10601 2.94117L6.35601 1.6896C6.39173 1.63953 6.42744 1.56446 6.42744 1.48936C6.42744 1.41426 6.40958 1.33916 6.35601 1.28912L5.10601 0.0375559C5.03459 -0.0125186 4.94529 -0.0125186 4.89174 0.0375559L3.64174 1.28912C3.60602 1.33919 3.57031 1.41426 3.57031 1.48936C3.57031 1.56446 3.60604 1.63956 3.64174 1.6896L4.89172 2.94117ZM4.99886 0.538164L5.94529 1.48936L4.99886 2.44053L4.05244 1.48933L4.99886 0.538164Z" fill="black"/>
<path d="M5.35547 3.24131C5.35547 3.31641 5.39119 3.39151 5.42689 3.44156L6.67689 4.69312C6.71261 4.71814 6.74832 4.74319 6.78404 4.74319C6.81976 4.74319 6.85547 4.71817 6.89119 4.69312L8.14119 3.44156C8.17691 3.39148 8.21261 3.31641 8.21261 3.24131C8.21261 3.16622 8.19476 3.09112 8.14119 3.04107L6.89119 1.78951C6.81976 1.73943 6.73047 1.73943 6.67691 1.78951L5.42691 3.04107C5.39117 3.09115 5.35547 3.16624 5.35547 3.24131ZM6.78404 2.29014L7.73046 3.24134L6.78404 4.19254L5.83762 3.24134L6.78404 2.29014Z" fill="black"/>
<path d="M3.10656 4.69361C3.14228 4.71863 3.17799 4.74368 3.21371 4.74368C3.24943 4.74368 3.28513 4.71866 3.32086 4.69361L4.57085 3.44205C4.60658 3.39197 4.64228 3.3169 4.64228 3.2418C4.64228 3.1667 4.62443 3.09161 4.57085 3.04156L3.32086 1.79C3.24943 1.73992 3.16013 1.73992 3.10658 1.79L1.85658 3.04156C1.82086 3.09163 1.78516 3.1667 1.78516 3.2418C1.78516 3.3169 1.82088 3.392 1.85658 3.44205L3.10656 4.69361ZM3.21369 2.29061L4.16011 3.2418L3.21369 4.193L2.26726 3.2418L3.21369 2.29061Z" fill="black"/>
<path d="M5.10601 3.54195C5.03459 3.49188 4.94529 3.49188 4.89174 3.54195L3.64174 4.79351C3.60602 4.84359 3.57031 4.91866 3.57031 4.99376C3.57031 5.06885 3.60604 5.14395 3.64174 5.194L4.89174 6.44556C4.92746 6.47058 4.96316 6.49563 4.99888 6.49563C5.03461 6.49563 5.07031 6.47061 5.10603 6.44556L6.35603 5.194C6.39175 5.14392 6.42746 5.06885 6.42746 4.99376C6.42746 4.91866 6.4096 4.84356 6.35603 4.79351L5.10601 3.54195ZM4.99886 5.94495L4.05244 4.99376L4.99886 4.04259L5.94529 4.99378L4.99886 5.94495Z" fill="black"/>
<path d="M6.35601 8.29791L5.10601 7.04634C5.03459 6.99627 4.94529 6.99627 4.89174 7.04634L3.64174 8.29791C3.60602 8.34798 3.57031 8.42305 3.57031 8.49815C3.57031 8.57325 3.60604 8.64835 3.64174 8.69839L4.89174 9.94995C4.92746 9.97498 4.96316 10 4.99888 10C5.03461 10 5.07031 9.97501 5.10603 9.94995L6.35603 8.69839C6.39175 8.64832 6.42746 8.57325 6.42746 8.49815C6.42746 8.42305 6.40958 8.34798 6.35601 8.29791ZM4.99886 9.44935L4.05244 8.49815L4.99886 7.54698L5.94529 8.49818L4.99886 9.44935Z" fill="black"/>
<path d="M9.93023 4.79351L8.68023 3.54195C8.60881 3.49188 8.51951 3.49188 8.46595 3.54195L7.21596 4.79351C7.18023 4.84359 7.14453 4.91866 7.14453 4.99376C7.14453 5.06885 7.18025 5.14395 7.21596 5.194L8.46595 6.44556C8.50168 6.47058 8.53738 6.49563 8.5731 6.49563C8.60883 6.49563 8.64453 6.47061 8.68025 6.44556L9.93025 5.194C9.96597 5.14392 10.0017 5.06885 10.0017 4.99376C10.0017 4.91866 9.9838 4.84359 9.93023 4.79351ZM8.57308 5.94495L7.62666 4.99376L8.57308 4.04256L9.51951 4.99376L8.57308 5.94495Z" fill="black"/>
<path d="M8.14117 6.54546L6.89117 5.2939C6.81974 5.24383 6.73045 5.24383 6.67689 5.2939L5.42689 6.54546C5.39117 6.59554 5.35547 6.67061 5.35547 6.74571C5.35547 6.82081 5.39119 6.8959 5.42689 6.94595L6.67689 8.19751C6.71261 8.22254 6.74832 8.24759 6.78404 8.24759C6.81976 8.24759 6.85547 8.22256 6.89119 8.19751L8.14119 6.94595C8.17691 6.89588 8.21261 6.82081 8.21261 6.74571C8.21261 6.67061 8.19474 6.59554 8.14117 6.54546ZM6.78404 7.6969L5.83762 6.74571L6.78404 5.79451L7.73046 6.74571L6.78404 7.6969Z" fill="black"/>
<path d="M2.85714 4.99376C2.85714 4.91866 2.83929 4.84356 2.78572 4.79351L1.53572 3.54195C1.46429 3.49188 1.375 3.49188 1.32144 3.54195L0.0714452 4.79351C0.0357226 4.84359 0 4.91868 0 4.99376C0 5.06883 0.0357226 5.14395 0.0714256 5.194L1.32142 6.44556C1.35715 6.47058 1.39285 6.49563 1.42857 6.49563C1.46429 6.49563 1.5 6.47061 1.53572 6.44556L2.78572 5.194C2.82142 5.14395 2.85714 5.06885 2.85714 4.99376ZM1.42857 5.94495L0.482147 4.99376L1.42857 4.04256L2.375 4.99376L1.42857 5.94495Z" fill="black"/>
<path d="M4.64228 6.74571C4.64228 6.67061 4.62443 6.59551 4.57085 6.54546L3.32086 5.2939C3.24943 5.24383 3.16013 5.24383 3.10658 5.2939L1.85658 6.54546C1.82086 6.59554 1.78516 6.67061 1.78516 6.74571C1.78516 6.82081 1.82088 6.8959 1.85658 6.94595L3.10658 8.19751C3.1423 8.22254 3.17801 8.24759 3.21373 8.24759C3.24945 8.24759 3.28515 8.22256 3.32088 8.19751L4.57087 6.94595C4.60658 6.8959 4.64228 6.82081 4.64228 6.74571ZM3.21371 7.6969L2.26728 6.74571L3.21371 5.79451L4.16013 6.74571L3.21371 7.6969Z" fill="black"/>
</svg>
