<svg width="40" height="40" viewBox="0 0 24 25" fill="none" xmlns="http://www.w3.org/2000/svg">
	<path d="M12.61 10.6012C12.61 10.6012 11 10.6012 10.2265 11.7566L10.2574 6.5H8V18.5H10.2884V17.5601C10.2884 17.5601 10.9474 18.5 12.61 18.5C12.61 18.5 16 18.5 16 14.4164C16 14.4164 16 10.6012 12.61 10.6012ZM11.9992 16.2639C11.019 16.2639 10.2265 15.4373 10.2265 14.4164C10.2265 13.3907 11.0183 12.5649 11.9992 12.5649C12.9802 12.5649 13.7742 13.3907 13.7742 14.4164C13.7742 15.4373 12.9802 16.2639 11.9992 16.2639Z" fill="#BCBCBC" />
	<rect x="0.7" y="1.2" width="22.6" height="22.6" rx="5.3" stroke="#BCBCBC" stroke-width="1.4" />
</svg>
