<svg width="40" height="40" viewBox="0 0 24 25" fill="none" xmlns="http://www.w3.org/2000/svg">
<path d="M10.3074 16.5055C10.3074 16.354 10.2387 16.2107 10.1206 16.1157C10.0025 16.0208 9.84773 15.9846 9.69977 16.0172C8.92206 16.1886 8.44584 16.0773 8.15845 15.9255C8.3524 16.0095 8.55197 16.0574 8.7502 16.076C9.30383 16.128 9.79466 15.9481 10.059 15.8239C10.2142 15.7509 10.3212 15.6034 10.3424 15.4332C10.3948 15.0123 10.5566 14.7686 10.6752 14.661C10.8211 14.5287 10.8757 14.3231 10.8147 14.1358C10.7537 13.9486 10.5885 13.8146 10.3927 13.7935C9.55659 13.7037 8.78897 13.4984 8.23054 13.0152C7.69322 12.5503 7.27142 11.758 7.27142 10.3144C7.27142 9.56137 7.53426 8.95694 7.95105 8.4833C8.07441 8.34311 8.10937 8.14586 8.04171 7.97181C7.99687 7.85649 7.8051 7.30344 8.01483 6.5199C8.03057 6.52282 8.04711 6.52615 8.06447 6.52993C8.33742 6.58944 8.81561 6.76321 9.52116 7.25539C9.64322 7.34055 9.79688 7.3669 9.94034 7.32727C10.5359 7.1628 11.1499 7.07914 11.7667 7.07841C12.3828 7.07844 13.0121 7.16573 13.5913 7.327C13.735 7.36701 13.8891 7.34076 14.0115 7.25541C14.7171 6.76321 15.1953 6.58944 15.4683 6.52994C15.4857 6.52615 15.5022 6.52282 15.518 6.5199C15.7277 7.30338 15.5358 7.85641 15.4909 7.97181C15.4224 8.14802 15.4592 8.34781 15.5859 8.48812C16.0081 8.95561 16.2614 9.55633 16.2614 10.3144C16.2614 11.7578 15.8398 12.5462 15.3016 13.0094C14.7412 13.4917 13.9698 13.6972 13.1237 13.7939C12.9277 13.8163 12.7632 13.9519 12.7038 14.14C12.6443 14.3281 12.701 14.5336 12.8486 14.6646C13.0029 14.8016 13.2124 15.1313 13.2124 15.785C13.2124 16.3234 13.2092 16.809 13.206 17.1935C13.2051 17.3039 13.2042 17.4065 13.2033 17.4999L10.3147 17.5C10.3144 17.4761 10.3141 17.4517 10.3138 17.4269C10.3106 17.1608 10.3074 16.8362 10.3074 16.5055Z" fill="#BCBCBC" stroke="#BCBCBC" stroke-linejoin="round"/>
<rect x="0.7" y="1.2" width="22.6" height="22.6" rx="5.3" stroke="#BCBCBC" stroke-width="1.4"/>
</svg>
