<svg width="24" height="25" viewBox="0 0 24 25" fill="none" xmlns="http://www.w3.org/2000/svg">
<path d="M5 21.5C5 19.6435 5.7375 17.863 7.05025 16.5503C8.36301 15.2375 10.1435 14.5 12 14.5C13.8565 14.5 15.637 15.2375 16.9497 16.5503C18.2625 17.863 19 19.6435 19 21.5M16 7.5C16 8.56087 15.5786 9.57828 14.8284 10.3284C14.0783 11.0786 13.0609 11.5 12 11.5C10.9391 11.5 9.92172 11.0786 9.17157 10.3284C8.42143 9.57828 8 8.56087 8 7.5C8 6.43913 8.42143 5.42172 9.17157 4.67157C9.92172 3.92143 10.9391 3.5 12 3.5C13.0609 3.5 14.0783 3.92143 14.8284 4.67157C15.5786 5.42172 16 6.43913 16 7.5Z" stroke="#1A1A1A" stroke-width="1.5" stroke-linecap="round" stroke-linejoin="round"/>
</svg>
