<svg width="17" height="17" viewBox="0 0 17 17" fill="none" xmlns="http://www.w3.org/2000/svg">
	<path fill-rule="evenodd" clip-rule="evenodd" d="M1.28035 0.469687C0.987463 0.176784 0.51259 0.176769 0.219687 0.469653C-0.0732157 0.762537 -0.0732309 1.23741 0.219653 1.53031L7.18874 8.49984L0.220642 15.4684C-0.0722415 15.7613 -0.0722262 16.2362 0.220676 16.529C0.513579 16.8219 0.988452 16.8219 1.28134 16.529L8.24936 9.56054L15.2174 16.529C15.5103 16.8219 15.9851 16.8219 16.278 16.529C16.5709 16.2362 16.571 15.7613 16.2781 15.4684L9.30999 8.49984L16.2791 1.53031C16.572 1.23741 16.5719 0.762537 16.279 0.469653C15.9861 0.176769 15.5113 0.176784 15.2184 0.469687L8.24936 7.43915L1.28035 0.469687Z" fill="#1A1A1A" />
</svg>
