<svg width="36" height="36" viewBox="0 0 36 36" fill="none" xmlns="http://www.w3.org/2000/svg">
	<mask id="path-1-inside-1_1082_3662" fill="white">
		<path fill-rule="evenodd" clip-rule="evenodd" d="M26.5862 8.78132C26.7689 9.101 26.6578 9.50824 26.3381 9.69092L11.7955 18.0013L26.3381 26.311C26.6578 26.4937 26.7689 26.9009 26.5862 27.2206C26.4035 27.5403 25.9963 27.6514 25.6766 27.4687L10.1211 18.5802C9.91335 18.4615 9.78516 18.2406 9.78516 18.0013C9.78515 17.7621 9.91334 17.5412 10.1211 17.4225L25.6766 8.53327C25.9963 8.35059 26.4035 8.46165 26.5862 8.78132Z" />
	</mask>
	<path d="M26.3381 9.69092L26.9997 10.8486L26.9997 10.8486L26.3381 9.69092ZM26.5862 8.78132L25.4286 9.44286L25.4286 9.44287L26.5862 8.78132ZM11.7955 18.0013L11.134 16.8437L9.10811 18.0013L11.134 19.159L11.7955 18.0013ZM26.3381 26.311L26.9996 25.1534L26.9996 25.1534L26.3381 26.311ZM26.5862 27.2206L25.4285 26.5591L25.4285 26.5591L26.5862 27.2206ZM25.6766 27.4687L26.3381 26.311L26.3381 26.311L25.6766 27.4687ZM10.1211 18.5802L9.45957 19.7378L9.45957 19.7378L10.1211 18.5802ZM10.1211 17.4225L10.7826 18.5802L10.7826 18.5801L10.1211 17.4225ZM25.6766 8.53327L25.0151 7.37562V7.37562L25.6766 8.53327ZM26.9997 10.8486C27.9587 10.3005 28.2919 9.07881 27.7438 8.11978L25.4286 9.44287C25.2459 9.12319 25.3569 8.71595 25.6766 8.53327L26.9997 10.8486ZM12.4571 19.1589L26.9997 10.8486L25.6766 8.53327L11.134 16.8437L12.4571 19.1589ZM26.9996 25.1534L12.457 16.8436L11.134 19.159L25.6766 27.4687L26.9996 25.1534ZM27.7439 27.8821C28.2919 26.9231 27.9587 25.7014 26.9996 25.1534L25.6766 27.4687C25.357 27.286 25.2459 26.8788 25.4285 26.5591L27.7439 27.8821ZM25.0151 28.6264C25.9742 29.1744 27.1959 28.8412 27.7439 27.8821L25.4285 26.5591C25.6112 26.2394 26.0184 26.1284 26.3381 26.311L25.0151 28.6264ZM9.45957 19.7378L25.0151 28.6264L26.3381 26.311L10.7826 17.4225L9.45957 19.7378ZM8.45182 18.0014C8.45183 18.7191 8.83642 19.3818 9.45957 19.7378L10.7826 17.4225C10.9903 17.5412 11.1185 17.7621 11.1185 18.0013L8.45182 18.0014ZM9.45952 16.2649C8.83637 16.621 8.45181 17.2836 8.45182 18.0014L11.1185 18.0013C11.1185 18.2406 10.9903 18.4615 10.7826 18.5802L9.45952 16.2649ZM25.0151 7.37562L9.45952 16.2649L10.7826 18.5801L26.3381 9.69092L25.0151 7.37562ZM27.7438 8.11979C27.1958 7.16076 25.9741 6.82759 25.0151 7.37562L26.3381 9.69092C26.0185 9.87359 25.6112 9.76254 25.4286 9.44286L27.7438 8.11979Z" fill="#1A1A1A" mask="url(#path-1-inside-1_1082_3662)" />
	<rect x="22.6667" y="5.3339" width="8" height="8" rx="4" fill="white" stroke="#1A1A1A" stroke-width="1.33333" />
	<rect x="5.33073" y="13.9997" width="8" height="8" rx="4" fill="white" stroke="#1A1A1A" stroke-width="1.33333" />
	<rect x="22.6667" y="22.6669" width="8" height="8" rx="4" fill="white" stroke="#1A1A1A" stroke-width="1.33333" />
</svg>
