<svg width="34" height="32" viewBox="0 0 34 32" fill="none" xmlns="http://www.w3.org/2000/svg">
<path d="M16.8784 0.600342C7.66721 0.600342 0.200195 6.4879 0.200195 13.7504C0.200195 18.4458 3.3219 22.5658 8.01777 24.8923C7.7623 25.7733 6.37609 30.5603 6.32093 30.9363C6.32093 30.9363 6.28773 31.2189 6.47071 31.3267C6.65369 31.4344 6.8689 31.3507 6.8689 31.3507C7.39362 31.2774 12.9537 27.3719 13.9161 26.6937C14.8775 26.8298 15.8674 26.9005 16.8784 26.9005C26.0895 26.9005 33.5565 21.0132 33.5565 13.7504C33.5565 6.4879 26.0895 0.600342 16.8784 0.600342Z" fill="#1A1A1A"/>
<path d="M7.6578 18.3408C7.12715 18.3408 6.6956 17.9286 6.6956 17.4219V11.7056H5.19424C4.67353 11.7056 4.25 11.2829 4.25 10.7634C4.25 10.244 4.67369 9.82129 5.19424 9.82129H10.1214C10.6421 9.82129 11.0656 10.244 11.0656 10.7634C11.0656 11.2829 10.6419 11.7056 10.1214 11.7056H8.62V17.4219C8.62 17.9286 8.18845 18.3408 7.6578 18.3408ZM16.095 18.3283C15.6938 18.3283 15.3869 18.1653 15.2943 17.9033L14.8179 16.656L11.8838 16.6558L11.407 17.9039C11.3148 18.1655 11.008 18.3283 10.6068 18.3283C10.3957 18.3285 10.1871 18.2832 9.99515 18.1955C9.7299 18.0731 9.47492 17.7367 9.76711 16.8292L12.0687 10.7711C12.2308 10.3104 12.7233 9.83572 13.35 9.82145C13.9785 9.83556 14.471 10.3104 14.6334 10.7721L16.9341 16.8274C17.2269 17.737 16.9719 18.0736 16.7067 18.1957C16.5147 18.2832 16.3061 18.3284 16.095 18.3283C16.095 18.3283 16.0949 18.3283 16.095 18.3283ZM14.3119 14.9516L13.3508 12.2213L12.3898 14.9516H14.3119ZM18.4826 18.2005C17.9741 18.2005 17.5605 17.8047 17.5605 17.3184V10.7835C17.5605 10.2528 18.0012 9.82129 18.5427 9.82129C19.0843 9.82129 19.525 10.2528 19.525 10.7835V16.4364H21.5696C22.0782 16.4364 22.4918 16.8322 22.4918 17.3184C22.4918 17.8047 22.0782 18.2005 21.5696 18.2005H18.4826ZM23.8282 18.3283C23.2976 18.3283 22.866 17.8967 22.866 17.3661V10.7835C22.866 10.2528 23.2976 9.82129 23.8282 9.82129C24.3589 9.82129 24.7905 10.2528 24.7905 10.7835V12.8516L27.475 10.167C27.6131 10.029 27.8028 9.95295 28.0087 9.95295C28.2489 9.95295 28.4901 10.0565 28.6709 10.2371C28.8394 10.4055 28.9399 10.6222 28.9537 10.8472C28.9677 11.0741 28.8922 11.2821 28.7414 11.433L26.5487 13.6254L28.9172 16.7631C28.9936 16.8638 29.0494 16.9786 29.0811 17.101C29.1128 17.2233 29.1199 17.3508 29.1019 17.4759C29.0848 17.6011 29.0429 17.7217 28.9789 17.8306C28.9148 17.9396 28.8297 18.0347 28.7286 18.1105C28.5622 18.237 28.3588 18.3052 28.1498 18.3047C28.0007 18.3054 27.8536 18.2712 27.7201 18.2047C27.5866 18.1383 27.4705 18.0416 27.3812 17.9222L25.1247 14.9323L24.7908 15.2662V17.3656C24.7905 17.6208 24.689 17.8655 24.5085 18.0459C24.3281 18.2264 24.0835 18.3279 23.8282 18.3283Z" fill="white"/>
</svg>
