<svg width="26" height="26" viewBox="0 0 26 26" fill="none" xmlns="http://www.w3.org/2000/svg">
<path d="M10.3837 20.1186L8.13851 22.3004C7.54976 22.8892 6.75126 23.2199 5.91865 23.2199C5.08604 23.2199 4.28753 22.8892 3.69879 22.3004C3.11005 21.7117 2.7793 20.9132 2.7793 20.0806C2.7793 19.2479 3.11005 18.4494 3.69879 17.8607L9.45774 12.0891C10.023 11.522 10.7846 11.1939 11.585 11.1726C12.3854 11.1514 13.1634 11.4386 13.7579 11.9749L13.9101 12.1017C14.1507 12.3372 14.4749 12.4675 14.8115 12.464C15.1481 12.4604 15.4696 12.3233 15.7051 12.0827C15.9405 11.8422 16.0708 11.5179 16.0673 11.1813C16.0637 10.8447 15.9266 10.5233 15.686 10.2878C15.6144 10.1952 15.5382 10.1063 15.4577 10.0214C14.3749 9.07933 12.9744 8.58403 11.54 8.63585C10.1057 8.68766 8.74463 9.28272 7.73259 10.3005L1.89753 16.0721C0.906027 17.1513 0.369791 18.5719 0.400811 20.0371C0.43183 21.5023 1.02771 22.8989 2.064 23.9352C3.1003 24.9715 4.49688 25.5674 5.96209 25.5984C7.4273 25.6294 8.84785 25.0932 9.92708 24.1017L12.1216 21.9579C12.3382 21.7215 12.4574 21.4119 12.4549 21.0912C12.4525 20.7705 12.3287 20.4627 12.1085 20.2296C11.8883 19.9965 11.588 19.8555 11.268 19.8349C10.948 19.8143 10.632 19.9157 10.3837 20.1186ZM23.9439 2.05531C22.8768 0.994858 21.4335 0.399658 19.9291 0.399658C18.4247 0.399658 16.9814 0.994858 15.9144 2.05531L13.7199 4.19905C13.5032 4.43544 13.3841 4.74511 13.3865 5.06577C13.3889 5.38643 13.5127 5.69427 13.7329 5.92735C13.9531 6.16044 14.2535 6.30147 14.5735 6.32206C14.8935 6.34266 15.2094 6.24129 15.4577 6.03836L17.6522 3.85656C18.2409 3.26782 19.0394 2.93707 19.872 2.93707C20.7046 2.93707 21.5032 3.26782 22.0919 3.85656C22.6806 4.44531 23.0114 5.24381 23.0114 6.07642C23.0114 6.90903 22.6806 7.70753 22.0919 8.29628L16.333 14.0679C15.7677 14.635 15.0061 14.9631 14.2057 14.9844C13.4053 15.0056 12.6273 14.7184 12.0328 14.1821L11.8806 14.0552C11.64 13.8197 11.3158 13.6894 10.9792 13.693C10.6425 13.6966 10.3211 13.8337 10.0856 14.0743C9.85014 14.3148 9.71984 14.639 9.72341 14.9756C9.72698 15.3123 9.86412 15.6337 10.1047 15.8692C10.1968 15.9634 10.2942 16.0523 10.3964 16.1355C11.4806 17.0748 12.8804 17.5682 14.3139 17.5165C15.7474 17.4647 17.108 16.8715 18.1215 15.8565L23.8932 10.0848C24.9604 9.02449 25.5647 7.58495 25.5742 6.08054C25.5837 4.57614 24.9976 3.12907 23.9439 2.05531Z" fill="#1A1A1A"/>
</svg>
