<svg width="24" height="24" viewBox="0 0 24 24" fill="none" xmlns="http://www.w3.org/2000/svg">
<mask id="path-1-inside-1_1105_8734" fill="white">
<path fill-rule="evenodd" clip-rule="evenodd" d="M17.9477 5.72684C18.1395 6.06249 18.0229 6.4901 17.6872 6.68191L8.38043 12.0003L17.6872 17.3182C18.0229 17.51 18.1395 17.9376 17.9477 18.2733C17.7559 18.6089 17.3283 18.7256 16.9926 18.5338L6.62224 12.6081C6.40414 12.4834 6.26954 12.2515 6.26953 12.0003C6.26953 11.7491 6.40412 11.5172 6.62222 11.3925L16.9926 5.46638C17.3283 5.27457 17.7559 5.39118 17.9477 5.72684Z"/>
</mask>
<path d="M17.6872 6.68191L18.3818 7.89744H18.3818L17.6872 6.68191ZM17.9477 5.72684L19.1632 5.03222L17.9477 5.72684ZM8.38043 12.0003L7.68581 10.7847L5.55864 12.0003L7.68585 13.2158L8.38043 12.0003ZM17.6872 17.3182L16.9926 18.5338L16.9926 18.5338L17.6872 17.3182ZM17.9477 18.2733L16.7321 17.5787L16.7321 17.5787L17.9477 18.2733ZM16.9926 18.5338L17.6872 17.3182L17.6872 17.3182L16.9926 18.5338ZM6.62224 12.6081L5.92767 13.8236L5.92767 13.8236L6.62224 12.6081ZM6.26953 12.0003L7.66953 12.0003L6.26953 12.0003ZM6.62222 11.3925L7.31684 12.6081L7.31684 12.6081L6.62222 11.3925ZM16.9926 5.46638L17.6872 6.68191V6.68191L16.9926 5.46638ZM18.3818 7.89744C19.3888 7.322 19.7386 6.0392 19.1632 5.03222L16.7321 6.42145C16.5403 6.08579 16.6569 5.65819 16.9926 5.46638L18.3818 7.89744ZM9.07504 13.2158L18.3818 7.89744L16.9926 5.46638L7.68581 10.7847L9.07504 13.2158ZM18.3818 16.1027L9.075 10.7847L7.68585 13.2158L16.9926 18.5338L18.3818 16.1027ZM19.1632 18.9679C19.7386 17.9609 19.3888 16.6781 18.3818 16.1027L16.9926 18.5338C16.6569 18.342 16.5403 17.9144 16.7321 17.5787L19.1632 18.9679ZM16.298 19.7493C17.305 20.3247 18.5878 19.9749 19.1632 18.9679L16.7321 17.5787C16.9239 17.243 17.3515 17.1264 17.6872 17.3182L16.298 19.7493ZM5.92767 13.8236L16.298 19.7493L17.6872 17.3182L7.31682 11.3925L5.92767 13.8236ZM4.86953 12.0003C4.86954 12.7539 5.27336 13.4497 5.92767 13.8236L7.31682 11.3925C7.53492 11.5171 7.66953 11.7491 7.66953 12.0003L4.86953 12.0003ZM5.92761 10.177C5.27331 10.5509 4.86952 11.2467 4.86953 12.0003L7.66953 12.0003C7.66954 12.2515 7.53494 12.4834 7.31684 12.6081L5.92761 10.177ZM16.298 4.25085L5.92761 10.177L7.31684 12.6081L17.6872 6.68191L16.298 4.25085ZM19.1632 5.03222C18.5878 4.02524 17.305 3.67541 16.298 4.25085L17.6872 6.68191C17.3516 6.87372 16.924 6.75711 16.7321 6.42145L19.1632 5.03222Z" fill="#666666" mask="url(#path-1-inside-1_1105_8734)"/>
<rect x="14.6641" y="3.11133" width="6.22222" height="6.22222" rx="3.11111" fill="white" stroke="#666666" stroke-width="1.4"/>
<rect x="3.10938" y="8.88867" width="6.22222" height="6.22222" rx="3.11111" fill="white" stroke="#666666" stroke-width="1.4"/>
<rect x="14.6641" y="14.668" width="6.22222" height="6.22222" rx="3.11111" fill="white" stroke="#666666" stroke-width="1.4"/>
</svg>
