<svg width="32" height="32" viewBox="0 0 32 32" fill="none" xmlns="http://www.w3.org/2000/svg">
<path d="M17.3333 10.6667L22.6667 16.0001M22.6667 16.0001L17.3333 21.3334M22.6667 16.0001H4M10.6667 10.6667V9.33341C10.6667 8.27255 11.0881 7.25513 11.8382 6.50499C12.5884 5.75484 13.6058 5.33341 14.6667 5.33341H24C25.0609 5.33341 26.0783 5.75484 26.8284 6.50499C27.5786 7.25513 28 8.27255 28 9.33341V22.6667C28 23.7276 27.5786 24.745 26.8284 25.4952C26.0783 26.2453 25.0609 26.6667 24 26.6667H14.6667C13.6058 26.6667 12.5884 26.2453 11.8382 25.4952C11.0881 24.745 10.6667 23.7276 10.6667 22.6667V21.3334" stroke="#1A1A1A" stroke-width="1.4" stroke-linecap="round" stroke-linejoin="round"/>
</svg>
