<svg width="32" height="32" viewBox="0 0 32 32" fill="none" xmlns="http://www.w3.org/2000/svg">
<path d="M10.666 12L21.3327 12C23.5418 12 25.3327 13.7909 25.3327 16V24C25.3327 26.2091 23.5418 28 21.3327 28H10.666C8.45688 28 6.66602 26.2091 6.66602 24V16C6.66602 13.7909 8.45688 12 10.666 12ZM10.666 12V8C10.666 5.79087 12.4569 4.00001 14.666 4L17.9004 4C19.796 4 21.3327 5.53669 21.3327 7.43229M15.9993 18.6667V22.6667M17.3327 18.6667C17.3327 19.403 16.7357 20 15.9993 20C15.263 20 14.666 19.403 14.666 18.6667C14.666 17.9303 15.263 17.3333 15.9993 17.3333C16.7357 17.3333 17.3327 17.9303 17.3327 18.6667Z" stroke="black" stroke-width="1.4" stroke-linecap="round" stroke-linejoin="round"/>
</svg>
