<svg width="32" height="32" viewBox="0 0 32 32" fill="none" xmlns="http://www.w3.org/2000/svg">
<path d="M11.45 10.708C11.45 7.91897 13.711 5.65801 16.5 5.65801C19.289 5.65801 21.55 7.91897 21.55 10.708C21.55 13.497 19.289 15.758 16.5 15.758C13.711 15.758 11.45 13.497 11.45 10.708Z" stroke="#1A1A1A" stroke-width="1.4"/>
<path fill-rule="evenodd" clip-rule="evenodd" d="M24.6846 26.0417V25.0833C24.6846 20.5638 21.0208 16.9 16.5013 16.9C11.9818 16.9 8.31797 20.5638 8.31797 25.0833V26.0417H6.91797V25.0833C6.91797 19.7906 11.2086 15.5 16.5013 15.5C21.794 15.5 26.0846 19.7906 26.0846 25.0833V26.0417H24.6846Z" fill="#1A1A1A"/>
</svg>
