<svg width="25" height="24" viewBox="0 0 25 24" fill="none" xmlns="http://www.w3.org/2000/svg">
<g id="icon_sns_kakao 1" clip-path="url(#clip0_627_8872)">
<path id="Vector" d="M22.833 0H2.83301C1.72844 0 0.833008 0.89543 0.833008 2V22C0.833008 23.1046 1.72844 24 2.83301 24H22.833C23.9376 24 24.833 23.1046 24.833 22V2C24.833 0.89543 23.9376 0 22.833 0Z" fill="#FFCD00"/>
<path id="Vector_2" d="M12.833 5C8.967 5 5.83301 7.6778 5.83301 10.9809C5.83301 13.1165 7.14324 14.9903 9.11413 16.0485C9.0069 16.4492 8.42511 18.6264 8.40192 18.7975C8.40192 18.7975 8.38801 18.9259 8.46479 18.975C8.54162 19.024 8.63192 18.9859 8.63192 18.9859C8.85215 18.9526 11.1858 17.1762 11.5897 16.8678C11.9932 16.9297 12.4087 16.9619 12.833 16.9619C16.699 16.9619 19.833 14.2842 19.833 10.9809C19.833 7.6778 16.699 5 12.833 5Z" fill="#381F1F"/>
</g>
<defs>
<clipPath id="clip0_627_8872">
<rect width="24" height="24" fill="white" transform="translate(0.833008)"/>
</clipPath>
</defs>
</svg>
