<svg width="17" height="16" viewBox="0 0 17 16" fill="none" xmlns="http://www.w3.org/2000/svg">
	<g id="Photo Camera">
		<path id="Rectangle 111" d="M2.5 6.6665C2.5 5.56193 3.39543 4.6665 4.5 4.6665V4.6665C5.12951 4.6665 5.72229 4.37012 6.1 3.8665L6.4 3.4665C6.77771 2.96289 7.37049 2.6665 8 2.6665H9C9.62951 2.6665 10.2223 2.96289 10.6 3.4665L10.9 3.8665C11.2777 4.37012 11.8705 4.6665 12.5 4.6665V4.6665C13.6046 4.6665 14.5 5.56193 14.5 6.6665V11.3332C14.5 12.4377 13.6046 13.3332 12.5 13.3332H4.5C3.39543 13.3332 2.5 12.4377 2.5 11.3332V6.6665Z" stroke="#666666" stroke-width="1.4" stroke-linecap="round" stroke-linejoin="round" />
		<circle id="Ellipse 130" cx="8.49967" cy="8.66667" r="2.66667" stroke="#666666" stroke-width="1.4" stroke-linecap="round" stroke-linejoin="round" />
	</g>
</svg>
