<svg width="18" height="18" viewBox="0 0 18 18" fill="none" xmlns="http://www.w3.org/2000/svg">
	<mask id="path-1-inside-1_676_8831" fill="white">
		<path fill-rule="evenodd" clip-rule="evenodd" d="M2 5.47388C2 4.36931 2.89543 3.47388 4 3.47388H6.63158C7.73615 3.47388 8.63158 4.36931 8.63158 5.47388V9.36829H12.5262C13.6308 9.36829 14.5262 10.2637 14.5262 11.3683V13.9999C14.5262 15.1044 13.6308 15.9999 12.5262 15.9999H8.63158H7.89464H4C2.89543 15.9999 2 15.1044 2 13.9999V9.36861V9.36829V5.47388Z" />
	</mask>
	<path d="M8.63158 9.36829H7.23158V10.7683H8.63158V9.36829ZM4 2.07388C2.12223 2.07388 0.6 3.59611 0.6 5.47388H3.4C3.4 5.14251 3.66863 4.87388 4 4.87388V2.07388ZM6.63158 2.07388H4V4.87388H6.63158V2.07388ZM10.0316 5.47388C10.0316 3.59611 8.50935 2.07388 6.63158 2.07388V4.87388C6.96295 4.87388 7.23158 5.14251 7.23158 5.47388H10.0316ZM10.0316 9.36829V5.47388H7.23158V9.36829H10.0316ZM12.5262 7.96829H8.63158V10.7683H12.5262V7.96829ZM15.9262 11.3683C15.9262 9.49052 14.404 7.96829 12.5262 7.96829V10.7683C12.8576 10.7683 13.1262 11.0369 13.1262 11.3683H15.9262ZM15.9262 13.9999V11.3683H13.1262V13.9999H15.9262ZM12.5262 17.3999C14.404 17.3999 15.9262 15.8776 15.9262 13.9999H13.1262C13.1262 14.3312 12.8576 14.5999 12.5262 14.5999V17.3999ZM8.63158 17.3999H12.5262V14.5999H8.63158V17.3999ZM7.89464 17.3999H8.63158V14.5999H7.89464V17.3999ZM4 17.3999H7.89464V14.5999H4V17.3999ZM0.6 13.9999C0.6 15.8776 2.12223 17.3999 4 17.3999V14.5999C3.66863 14.5999 3.4 14.3312 3.4 13.9999H0.6ZM0.6 9.36861V13.9999H3.4V9.36861H0.6ZM0.6 9.36829V9.36861H3.4V9.36829H0.6ZM0.6 5.47388V9.36829H3.4V5.47388H0.6Z" fill="#666666" mask="url(#path-1-inside-1_676_8831)" />
	<path d="M7.89546 9.86938H2.36914" stroke="#666666" stroke-width="1.5" />
	<path d="M8.15234 15.6315L8.15234 10.1052" stroke="#666666" stroke-width="1.5" />
	<rect x="10.1191" y="2.75" width="5.13158" height="5.13158" rx="1.25" stroke="#666666" stroke-width="1.5" />
</svg>
