<svg width="15" height="14" viewBox="0 0 15 14" fill="none" xmlns="http://www.w3.org/2000/svg">
	<g id="Frame 163">
		<path id="Union" fill-rule="evenodd" clip-rule="evenodd" d="M3.13347 1.64352C2.86011 1.37014 2.41689 1.37013 2.14352 1.64349C1.87014 1.91684 1.87013 2.36006 2.14349 2.63343L6.51067 7.00091L2.14413 11.3677C1.87077 11.6411 1.87079 12.0843 2.14416 12.3577C2.41754 12.631 2.86075 12.631 3.13411 12.3576L7.50058 7.99089L11.8671 12.3576C12.1404 12.631 12.5836 12.631 12.857 12.3577C13.1304 12.0843 13.1304 11.6411 12.857 11.3677L8.4905 7.00091L12.8577 2.63343C13.131 2.36006 13.131 1.91684 12.8577 1.64349C12.5843 1.37013 12.1411 1.37014 11.8677 1.64352L7.50058 6.01092L3.13347 1.64352Z" fill="#666666" />
	</g>
</svg>
